<svg width="150" height="150" viewBox="0 0 150 150" fill="none" xmlns="http://www.w3.org/2000/svg">
<g clip-path="url(#clip0)">
<path fill-rule="evenodd" clip-rule="evenodd" d="M79.7241 70.3123V74.7414V79.7241H84.1532V74.7414V70.3123H79.7241Z" fill="black"/>
<path fill-rule="evenodd" clip-rule="evenodd" d="M65.8831 70.3123V74.7414V79.7241H60.9003V84.1532H56.4712V89.136H51.4885V93.5651H47.0594V98.5479V102.977H51.4885H56.4712V98.5479H60.9003V93.5651H65.8831V89.136H70.3122V84.1532H74.7413H79.7241V79.7241H74.7413H70.3122V74.7414V70.3123H65.8831Z" fill="black"/>
<path fill-rule="evenodd" clip-rule="evenodd" d="M70.3122 32.6648V37.6476V42.0767V47.0594V51.4885V56.4713V60.9004V65.8832V70.3123H74.7413H79.7241V65.8832V60.9004V56.4713V51.4885V47.0594V42.0767V37.6476V32.6648H74.7413H70.3122Z" fill="black"/>
<path fill-rule="evenodd" clip-rule="evenodd" d="M65.8831 0V4.42912V9.41187H70.3122V13.841H65.8831H60.9003V18.8237V23.2529H56.4712H51.4885V18.8237V13.841H47.0594V9.41187V4.42912H42.0766H37.6475V9.41187H42.0766V13.841H37.6475V9.41187H32.6647V13.841V18.8237H37.6475V23.2529H42.0766H47.0594V28.2356H42.0766H37.6475V32.6647H32.6647V37.6475H28.2356V42.0766V47.0594H23.2529V42.0766V37.6475H18.8237V32.6647H13.841H9.41187V37.6475H13.841V42.0766H9.41187V37.6475H4.42912V42.0766V47.0594H9.41187H13.841V51.4885H18.8237H23.2529V56.4712V60.9003H18.8237H13.841V65.8831V70.3122H9.41187V65.8831H4.42912H0V70.3122V74.7413V79.7241V84.1532H4.42912H9.41187V79.7241H4.42912V74.7413H9.41187V79.7241H13.841V84.1532V89.136H18.8237H23.2529V93.5651V98.5478H18.8237H13.841V102.977H9.41187H4.42912V107.96V112.389H9.41187V107.96H13.841V112.389H9.41187V117.372H13.841H18.8237V112.389H23.2529V107.96V102.977H28.2356V107.96V112.389H32.6647V117.372H37.6475V121.801H42.0766H47.0594V126.783H42.0766H37.6475V131.213H32.6647V136.195V140.624H37.6475V136.195H42.0766V140.624H37.6475V145.054H42.0766H47.0594V140.624V136.195H51.4885V131.213V126.783H56.4712H60.9003V131.213V136.195H65.8831H70.3122V140.624H74.7413V145.054H70.3122V140.624H65.8831V145.054V150.036H70.3122H74.7413H79.7241H84.1532V145.054V140.624H79.7241V136.195H84.1532H89.136V131.213V126.783H93.5651H98.5478V131.213V136.195H102.977V140.624V145.054H107.96H112.389V140.624H107.96V136.195H112.389V140.624H117.372V136.195V131.213H112.389V126.783H107.96H102.977V121.801H107.96H112.389V117.372H117.372V112.389H121.801V107.96V102.977H126.783V107.96V112.389H131.213V117.372H136.195H140.624V112.389H136.195V107.96H140.624V112.389H145.054V107.96V102.977H140.624H136.195V98.5478H131.213H126.783V93.5651V89.136H131.213H136.195V84.1532V79.7241H140.624V84.1532H145.054H150.036V79.7241V74.7413V70.3122V65.8831H145.054H140.624V70.3122H145.054V74.7413H140.624V70.3122H136.195V65.8831V60.9003H131.213H126.783V56.4712V51.4885H131.213H136.195V47.0594H140.624H145.054V42.0766V37.6475H140.624V42.0766H136.195V37.6475H140.624V32.6647H136.195H131.213V37.6475H126.783V42.0766V47.0594H121.801V42.0766V37.6475H117.372V32.6647H112.389V28.2356H107.96H102.977V23.2529H107.96H112.389V18.8237H117.372V13.841V9.41187H112.389V13.841H107.96V9.41187H112.389V4.42912H107.96H102.977V9.41187V13.841H98.5478V18.8237V23.2529H93.5651H89.136V18.8237V13.841H84.1532H79.7241V9.41187H74.7413V4.42912H79.7241V9.41187H84.1532V4.42912V0H79.7241H74.7413H70.3122H65.8831ZM60.9003 28.2356H65.8831H70.3122H74.7413H79.7241H84.1532H89.136V32.6647H93.5651H98.5478H102.977V37.6475H107.96V42.0766H112.389V47.0594H117.372V51.4885V56.4712V60.9003H121.801V65.8831V70.3122V74.7413V79.7241V84.1532V89.136H117.372V93.5651V98.5478V102.977H112.389V107.96H107.96V112.389H102.977V117.372H98.5478H93.5651H89.136V121.801H84.1532H79.7241H74.7413H70.3122H65.8831H60.9003V117.372H56.4712H51.4885H47.0594V112.389H42.0766V107.96H37.6475V102.977H32.6647V98.5478V93.5651V89.136H28.2356V84.1532V79.7241V74.7413V70.3122V65.8831V60.9003H32.6647V56.4712V51.4885V47.0594H37.6475V42.0766H42.0766V37.6475H47.0594V32.6647H51.4885H56.4712H60.9003V28.2356Z" fill="black"/>
</g>
<defs>
<clipPath id="clip0">
<rect width="150" height="150" fill="white"/>
</clipPath>
</defs>
</svg>
